<?xml version="1.0" encoding="utf-8"?>
<!-- Generator: Adobe Illustrator 16.0.0, SVG Export Plug-In . SVG Version: 6.00 Build 0)  -->
<!DOCTYPE svg PUBLIC "-//W3C//DTD SVG 1.1//EN" "http://www.w3.org/Graphics/SVG/1.1/DTD/svg11.dtd">
<svg version="1.1" xmlns="http://www.w3.org/2000/svg" xmlns:xlink="http://www.w3.org/1999/xlink" x="0px" y="0px" width="30px"
	 height="30px" viewBox="0 0 30 30" enable-background="new 0 0 30 30" xml:space="preserve">
<g id="Layer_1">
	<path fill="#6D6E71" stroke="#6D6E71" stroke-miterlimit="10" d="M5.816,7.436c-1.399,2.858,2.479,8.695,4.523,11.032
		c2.246,2.565,6.601,6.101,9.382,6.176c2.288,0.063,5.331-2.676,5.2-3.505c-0.13-0.831-3.3-3.797-4.263-3.638
		c-0.428,0.07-2.365,1.441-2.968,1.502c-0.603,0.06-2.813-1.133-4.484-3.012c-1.685-1.896-2.694-4.08-2.682-4.605
		c0.014-0.526,2.743-2.43,2.686-3.164C13.13,7.174,11.1,3.691,10.197,3.49C9.166,3.26,6.322,6.407,5.816,7.436z"/>
</g>
<g id="Layer_2">
</g>
</svg>
