<?xml version="1.0" encoding="utf-8"?>
<!-- Generator: Adobe Illustrator 16.0.0, SVG Export Plug-In . SVG Version: 6.00 Build 0)  -->
<!DOCTYPE svg PUBLIC "-//W3C//DTD SVG 1.1//EN" "http://www.w3.org/Graphics/SVG/1.1/DTD/svg11.dtd">
<svg version="1.1" id="Layer_1" xmlns="http://www.w3.org/2000/svg" xmlns:xlink="http://www.w3.org/1999/xlink" x="0px" y="0px"
	 width="327.5px" height="146px" viewBox="0 0 327.5 146" enable-background="new 0 0 327.5 146" xml:space="preserve">
<rect x="6.005" y="12.821" fill="#FFD400" width="128.74" height="121.83"/>
<path fill="#FFFFFF" d="M107.431,76.299c-0.482,17.814-16.172,32.119-35.467,32.119c-19.3,0-34.989-14.305-35.472-32.119h-14.48
	c0.489,25.135,22.66,40.767,49.953,40.767c27.293,0,49.461-15.632,49.951-40.767H107.431z"/>
<g>
	<path fill="#6D6F71" d="M15.619,48.419c0.687-1.962,1.677-3.677,2.966-5.138c1.291-1.464,2.875-2.611,4.753-3.443
		c1.879-0.832,3.993-1.248,6.344-1.248c2.381,0,4.502,0.417,6.367,1.248c1.864,0.833,3.439,1.979,4.731,3.443
		c1.292,1.46,2.28,3.175,2.967,5.138c0.689,1.966,1.033,4.094,1.033,6.39c0,2.234-0.344,4.321-1.033,6.257
		c-0.687,1.936-1.676,3.621-2.967,5.055c-1.292,1.433-2.867,2.556-4.731,3.377c-1.865,0.815-3.986,1.225-6.367,1.225
		c-2.352,0-4.465-0.409-6.344-1.225c-1.878-0.821-3.462-1.944-4.753-3.377c-1.289-1.434-2.279-3.119-2.966-5.055
		c-0.69-1.936-1.034-4.023-1.034-6.257C14.585,52.513,14.929,50.385,15.619,48.419z M21.79,58.571
		c0.302,1.221,0.781,2.316,1.442,3.292c0.659,0.973,1.52,1.755,2.581,2.343c1.061,0.589,2.352,0.883,3.871,0.883
		c1.52,0,2.811-0.293,3.872-0.883c1.062-0.587,1.92-1.37,2.582-2.343c0.659-0.976,1.139-2.071,1.44-3.292
		c0.301-1.219,0.452-2.474,0.452-3.762c0-1.348-0.151-2.652-0.452-3.915c-0.301-1.262-0.781-2.389-1.44-3.379
		c-0.662-0.988-1.52-1.776-2.582-2.364c-1.061-0.587-2.352-0.882-3.872-0.882c-1.519,0-2.81,0.294-3.871,0.882
		c-1.061,0.587-1.921,1.376-2.581,2.364c-0.661,0.99-1.14,2.117-1.442,3.379c-0.3,1.262-0.451,2.566-0.451,3.915
		C21.338,56.097,21.489,57.352,21.79,58.571z"/>
	<path fill="#FFFFFF" d="M53.095,47.796v4.129h0.087c0.285-0.688,0.674-1.326,1.161-1.914c0.487-0.588,1.048-1.089,1.678-1.506
		c0.629-0.415,1.305-0.738,2.021-0.968c0.717-0.228,1.462-0.346,2.237-0.346c0.401,0,0.845,0.074,1.333,0.218v5.676
		c-0.287-0.058-0.63-0.108-1.033-0.15c-0.401-0.043-0.79-0.065-1.161-0.065c-1.117,0-2.065,0.187-2.839,0.56
		c-0.775,0.373-1.398,0.882-1.872,1.526c-0.474,0.646-0.811,1.399-1.01,2.257c-0.202,0.863-0.302,1.793-0.302,2.799v10.021h-6.109
		V47.796H53.095z"/>
	<path fill="#FFFFFF" d="M77.5,47.796v4.086h-4.473v11.011c0,1.035,0.172,1.72,0.517,2.064c0.344,0.345,1.031,0.518,2.063,0.518
		c0.346,0,0.675-0.015,0.99-0.043c0.313-0.029,0.615-0.072,0.902-0.129v4.731c-0.515,0.085-1.091,0.143-1.719,0.173
		c-0.632,0.028-1.25,0.042-1.851,0.042c-0.947,0-1.843-0.065-2.688-0.196c-0.847-0.127-1.59-0.377-2.237-0.751
		c-0.646-0.372-1.154-0.903-1.526-1.594c-0.373-0.684-0.56-1.588-0.56-2.707v-13.12h-3.697v-4.086h3.697v-6.667h6.109v6.667H77.5z"
		/>
	<path fill="#FFFFFF" d="M86.231,39.322v11.572h0.13c0.773-1.291,1.763-2.23,2.967-2.818c1.204-0.589,2.379-0.884,3.527-0.884
		c1.635,0,2.976,0.226,4.022,0.667c1.046,0.447,1.87,1.063,2.474,1.853c0.601,0.787,1.022,1.75,1.267,2.88
		c0.244,1.133,0.366,2.389,0.366,3.765v13.678h-6.106V57.475c0-1.835-0.289-3.206-0.861-4.108c-0.573-0.903-1.592-1.357-3.054-1.357
		c-1.664,0-2.867,0.495-3.613,1.487c-0.746,0.987-1.118,2.615-1.118,4.88v11.657h-6.108V39.322H86.231z"/>
	<path fill="#6D6F71" d="M103.97,54.097c0.543-1.447,1.319-2.681,2.322-3.699c1.004-1.017,2.208-1.807,3.615-2.365
		c1.403-0.561,2.98-0.841,4.73-0.841c1.749,0,3.334,0.28,4.752,0.841c1.421,0.558,2.631,1.348,3.635,2.365
		c1.003,1.019,1.778,2.252,2.323,3.699c0.545,1.45,0.817,3.063,0.817,4.839c0,1.778-0.272,3.383-0.817,4.817
		c-0.545,1.433-1.32,2.659-2.323,3.678c-1.004,1.019-2.214,1.8-3.635,2.344c-1.418,0.544-3.003,0.818-4.752,0.818
		c-1.75,0-3.327-0.273-4.73-0.818c-1.407-0.544-2.611-1.325-3.615-2.344c-1.003-1.02-1.779-2.245-2.322-3.678
		c-0.545-1.434-0.816-3.04-0.816-4.817C103.153,57.16,103.425,55.547,103.97,54.097z M109.518,61.538
		c0.174,0.846,0.468,1.605,0.884,2.281c0.415,0.675,0.967,1.211,1.655,1.613c0.689,0.4,1.55,0.602,2.581,0.602
		c1.032,0,1.899-0.202,2.601-0.602c0.704-0.402,1.264-0.938,1.68-1.613c0.415-0.675,0.71-1.435,0.881-2.281
		c0.172-0.843,0.258-1.709,0.258-2.602c0-0.887-0.086-1.762-0.258-2.625c-0.171-0.86-0.466-1.62-0.881-2.277
		c-0.416-0.659-0.976-1.199-1.68-1.614c-0.701-0.415-1.568-0.622-2.601-0.622c-1.031,0-1.892,0.208-2.581,0.622
		c-0.688,0.416-1.24,0.955-1.655,1.614c-0.416,0.658-0.71,1.417-0.884,2.277c-0.171,0.863-0.257,1.738-0.257,2.625
		C109.261,59.829,109.347,60.695,109.518,61.538z"/>
</g>
<g>
	<path fill="#6D6F71" d="M149.441,39.808v11.088h0.087c0.738-1.137,1.742-1.97,3.006-2.495c1.266-0.526,2.581-0.79,3.946-0.79
		c1.107,0,2.203,0.228,3.284,0.683c1.079,0.456,2.053,1.151,2.92,2.09c0.867,0.938,1.57,2.14,2.11,3.604
		c0.542,1.465,0.812,3.206,0.812,5.225s-0.271,3.76-0.812,5.224c-0.54,1.464-1.243,2.667-2.11,3.605
		c-0.867,0.938-1.841,1.634-2.92,2.089c-1.081,0.454-2.177,0.684-3.284,0.684c-1.621,0-3.07-0.258-4.351-0.768
		c-1.28-0.513-2.247-1.38-2.9-2.603h-0.085v2.815h-5.758V39.808H149.441z M159.252,56.567c-0.198-0.853-0.512-1.604-0.938-2.26
		c-0.428-0.653-0.96-1.172-1.6-1.556c-0.641-0.385-1.414-0.576-2.324-0.576c-0.883,0-1.649,0.191-2.304,0.576
		c-0.653,0.384-1.194,0.903-1.621,1.556c-0.425,0.656-0.737,1.407-0.938,2.26c-0.199,0.855-0.299,1.75-0.299,2.688
		c0,0.909,0.1,1.791,0.299,2.644c0.2,0.854,0.513,1.608,0.938,2.261c0.427,0.654,0.968,1.172,1.621,1.557
		c0.654,0.383,1.421,0.575,2.304,0.575c0.91,0,1.684-0.192,2.324-0.575c0.64-0.384,1.172-0.902,1.6-1.557
		c0.426-0.653,0.739-1.407,0.938-2.261c0.199-0.853,0.299-1.734,0.299-2.644C159.551,58.317,159.451,57.422,159.252,56.567z"/>
	<path fill="#6D6F71" d="M175.445,76.825c-1.166,0.769-2.787,1.153-4.861,1.153c-0.626,0-1.244-0.021-1.855-0.064
		c-0.611-0.044-1.23-0.093-1.855-0.149v-4.991c0.569,0.057,1.152,0.115,1.749,0.171c0.598,0.056,1.194,0.071,1.79,0.043
		c0.797-0.086,1.387-0.399,1.771-0.938c0.384-0.542,0.575-1.138,0.575-1.792c0-0.484-0.084-0.938-0.256-1.365l-7.72-20.685h6.442
		l4.989,15.097h0.084l4.82-15.097h6.269l-9.212,24.779C177.521,74.779,176.609,76.06,175.445,76.825z"/>
	<path fill="#6D6F71" d="M205.244,39.808v11.685h12.324V39.808h6.695v30.451h-6.695V57.123h-12.324v13.136h-6.696V39.808H205.244z"
		/>
	<path fill="#6D6F71" d="M236.189,76.825c-1.166,0.769-2.787,1.153-4.864,1.153c-0.624,0-1.243-0.021-1.854-0.064
		c-0.612-0.044-1.23-0.093-1.854-0.149v-4.991c0.568,0.057,1.151,0.115,1.747,0.171c0.597,0.056,1.196,0.071,1.792,0.043
		c0.796-0.086,1.387-0.399,1.769-0.938c0.385-0.542,0.576-1.138,0.576-1.792c0-0.484-0.085-0.938-0.256-1.365l-7.719-20.685h6.44
		l4.989,15.097h0.086l4.818-15.097h6.269l-9.211,24.779C238.265,74.779,237.354,76.06,236.189,76.825z"/>
	<path fill="#6D6F71" d="M263.778,67.444c-0.711,1.194-1.642,2.055-2.794,2.581c-1.153,0.524-2.451,0.79-3.902,0.79
		c-1.649,0-3.099-0.321-4.35-0.963c-1.251-0.638-2.282-1.504-3.094-2.6c-0.809-1.095-1.42-2.353-1.832-3.774
		c-0.414-1.421-0.618-2.9-0.618-4.435c0-1.479,0.204-2.908,0.618-4.287c0.412-1.378,1.023-2.596,1.832-3.646
		c0.812-1.052,1.828-1.898,3.051-2.538c1.222-0.64,2.645-0.96,4.265-0.96c1.307,0,2.553,0.278,3.731,0.832
		c1.18,0.555,2.111,1.372,2.793,2.453h0.084V39.808h6.059v30.451h-5.759v-2.815H263.778z M263.521,56.547
		c-0.17-0.838-0.461-1.578-0.873-2.218c-0.412-0.639-0.945-1.157-1.6-1.556c-0.654-0.397-1.478-0.598-2.474-0.598
		s-1.833,0.201-2.517,0.598c-0.682,0.399-1.231,0.924-1.642,1.577c-0.411,0.656-0.711,1.401-0.896,2.239
		c-0.186,0.838-0.276,1.714-0.276,2.624c0,0.852,0.099,1.707,0.299,2.559c0.196,0.853,0.519,1.613,0.959,2.282
		c0.441,0.667,0.994,1.209,1.663,1.621c0.668,0.412,1.471,0.618,2.409,0.618c0.996,0,1.827-0.198,2.495-0.596
		c0.667-0.398,1.2-0.931,1.599-1.6c0.399-0.667,0.683-1.428,0.853-2.282c0.173-0.853,0.258-1.732,0.258-2.644
		C263.778,58.261,263.693,57.386,263.521,56.547z"/>
	<path fill="#6D6F71" d="M287.707,70.259v-3.07h-0.128c-0.768,1.279-1.764,2.203-2.987,2.772c-1.222,0.569-2.471,0.854-3.751,0.854
		c-1.62,0-2.951-0.215-3.987-0.64c-1.039-0.428-1.854-1.033-2.453-1.815c-0.596-0.78-1.017-1.732-1.258-2.856
		c-0.241-1.123-0.363-2.368-0.363-3.731V48.209h6.057v12.454c0,1.819,0.285,3.176,0.853,4.072c0.569,0.896,1.58,1.342,3.029,1.342
		c1.647,0,2.843-0.489,3.583-1.47c0.737-0.982,1.107-2.595,1.107-4.841V48.209h6.057v22.049H287.707z"/>
	<path fill="#6D6F71" d="M303.012,39.808v16.334l7.636-7.933h7.164l-8.317,8.102l9.256,13.947h-7.335l-6.056-9.852l-2.348,2.261
		v7.591h-6.054V39.808H303.012z"/>
</g>
</svg>
