<?xml version="1.0" encoding="utf-8"?>
<!-- Generator: Adobe Illustrator 16.0.0, SVG Export Plug-In . SVG Version: 6.00 Build 0)  -->
<!DOCTYPE svg PUBLIC "-//W3C//DTD SVG 1.1//EN" "http://www.w3.org/Graphics/SVG/1.1/DTD/svg11.dtd">
<svg version="1.1" id="Layer_1" xmlns="http://www.w3.org/2000/svg" xmlns:xlink="http://www.w3.org/1999/xlink" x="0px" y="0px"
	 width="146px" height="146px" viewBox="0 0 146 146" enable-background="new 0 0 146 146" xml:space="preserve">
<path fill="#FFDA00" d="M118.711,77.445c-0.602,22.13-20.092,39.9-44.061,39.9c-23.976,0-43.463-17.771-44.064-39.9H12.598
	c0.607,31.223,28.148,50.641,62.053,50.641c33.904,0,61.443-19.418,62.049-50.641H118.711z"/>
<g>
	<path fill="#6D6E70" d="M4.658,42.814c0.854-2.44,2.083-4.568,3.687-6.385c1.603-1.818,3.571-3.241,5.903-4.275
		c2.333-1.032,4.96-1.549,7.881-1.549c2.957,0,5.593,0.517,7.908,1.549c2.316,1.034,4.274,2.457,5.877,4.275
		c1.604,1.816,2.833,3.944,3.687,6.385c0.855,2.439,1.283,5.085,1.283,7.934c0,2.779-0.428,5.37-1.283,7.776
		c-0.854,2.403-2.083,4.496-3.687,6.277s-3.562,3.178-5.877,4.194c-2.315,1.016-4.951,1.523-7.908,1.523
		c-2.921,0-5.548-0.508-7.881-1.523c-2.332-1.017-4.3-2.413-5.903-4.194c-1.604-1.781-2.833-3.874-3.687-6.277
		c-0.855-2.406-1.283-4.997-1.283-7.776C3.375,47.899,3.802,45.254,4.658,42.814z M12.324,55.424
		c0.374,1.515,0.971,2.877,1.79,4.088c0.819,1.21,1.889,2.182,3.207,2.913c1.316,0.729,2.919,1.095,4.808,1.095
		c1.888,0,3.49-0.365,4.809-1.095c1.318-0.731,2.386-1.703,3.207-2.913c0.819-1.211,1.416-2.573,1.79-4.088
		c0.374-1.514,0.561-3.072,0.561-4.676c0-1.673-0.187-3.294-0.561-4.861c-0.374-1.567-0.971-2.965-1.79-4.194
		c-0.821-1.23-1.889-2.209-3.207-2.939c-1.319-0.729-2.921-1.095-4.809-1.095c-1.888,0-3.491,0.366-4.808,1.095
		c-1.318,0.73-2.388,1.709-3.207,2.939c-0.819,1.229-1.417,2.627-1.79,4.194c-0.374,1.567-0.561,3.188-0.561,4.861
		C11.763,52.352,11.95,53.91,12.324,55.424z"/>
	<path fill="#FFDA00" d="M51.212,42.039v5.13h0.107c0.355-0.855,0.836-1.647,1.442-2.378c0.605-0.729,1.3-1.353,2.084-1.869
		c0.783-0.517,1.621-0.917,2.511-1.203c0.89-0.285,1.816-0.427,2.779-0.427c0.499,0,1.049,0.089,1.656,0.267v7.053
		c-0.356-0.071-0.784-0.134-1.282-0.187c-0.5-0.054-0.981-0.08-1.443-0.08c-1.389,0-2.565,0.232-3.526,0.694
		c-0.962,0.464-1.737,1.097-2.324,1.896c-0.588,0.803-1.007,1.738-1.255,2.806c-0.251,1.07-0.375,2.228-0.375,3.474v12.449h-7.587
		V42.039H51.212z"/>
	<path fill="#FFDA00" d="M81.529,42.039v5.076h-5.557v13.679c0,1.283,0.213,2.138,0.641,2.565S77.896,64,79.178,64
		c0.428,0,0.838-0.017,1.23-0.053c0.391-0.035,0.766-0.089,1.121-0.16v5.876c-0.643,0.108-1.354,0.179-2.137,0.214
		s-1.551,0.054-2.299,0.054c-1.174,0-2.289-0.08-3.34-0.241c-1.051-0.159-1.975-0.471-2.777-0.935
		c-0.802-0.462-1.435-1.122-1.897-1.977c-0.463-0.854-0.695-1.977-0.695-3.366V47.115h-4.594v-5.076h4.594v-8.281h7.588v8.281
		H81.529z"/>
	<path fill="#FFDA00" d="M92.373,31.513v14.374h0.162c0.963-1.603,2.189-2.771,3.688-3.5c1.494-0.729,2.955-1.095,4.381-1.095
		c2.029,0,3.695,0.276,4.996,0.828c1.299,0.552,2.324,1.318,3.072,2.297c0.748,0.98,1.273,2.174,1.576,3.58
		c0.301,1.407,0.453,2.966,0.453,4.676v16.99h-7.586V54.062c0-2.279-0.357-3.981-1.07-5.102c-0.711-1.123-1.977-1.686-3.791-1.686
		c-2.066,0-3.564,0.616-4.49,1.845s-1.391,3.252-1.391,6.064v14.479h-7.586v-38.15H92.373z"/>
	<path fill="#6D6E70" d="M114.41,49.867c0.676-1.798,1.639-3.331,2.885-4.594c1.248-1.265,2.742-2.245,4.49-2.939
		c1.744-0.695,3.703-1.042,5.877-1.042c2.172,0,4.141,0.347,5.904,1.042c1.764,0.694,3.268,1.675,4.516,2.939
		c1.244,1.263,2.207,2.796,2.885,4.594c0.676,1.8,1.014,3.803,1.014,6.011c0,2.209-0.338,4.204-1.014,5.984
		c-0.678,1.782-1.641,3.305-2.885,4.569c-1.248,1.265-2.752,2.234-4.516,2.911c-1.764,0.678-3.732,1.016-5.904,1.016
		c-2.174,0-4.133-0.338-5.877-1.016c-1.748-0.677-3.242-1.646-4.49-2.911c-1.246-1.265-2.209-2.787-2.885-4.569
		c-0.678-1.78-1.016-3.775-1.016-5.984C113.395,53.67,113.732,51.667,114.41,49.867z M121.303,59.112
		c0.215,1.05,0.578,1.994,1.096,2.831c0.516,0.837,1.203,1.505,2.057,2.004c0.855,0.499,1.926,0.747,3.207,0.747
		s2.359-0.248,3.232-0.747s1.568-1.167,2.084-2.004s0.881-1.781,1.096-2.831c0.213-1.051,0.318-2.13,0.318-3.234
		c0-1.104-0.105-2.189-0.318-3.26c-0.215-1.067-0.58-2.011-1.096-2.831c-0.516-0.819-1.211-1.487-2.084-2.004
		c-0.873-0.516-1.951-0.774-3.232-0.774s-2.352,0.259-3.207,0.774c-0.854,0.517-1.541,1.185-2.057,2.004
		c-0.518,0.82-0.881,1.764-1.096,2.831c-0.213,1.07-0.32,2.156-0.32,3.26C120.982,56.982,121.09,58.062,121.303,59.112z"/>
</g>
<line fill="none" x1="-0.411" y1="69.663" x2="146.41" y2="69.663"/>
</svg>
