<?xml version="1.0" encoding="utf-8"?>
<!-- Generator: Adobe Illustrator 16.0.0, SVG Export Plug-In . SVG Version: 6.00 Build 0)  -->
<!DOCTYPE svg PUBLIC "-//W3C//DTD SVG 1.1//EN" "http://www.w3.org/Graphics/SVG/1.1/DTD/svg11.dtd">
<svg version="1.1" id="Layer_2" xmlns="http://www.w3.org/2000/svg" xmlns:xlink="http://www.w3.org/1999/xlink" x="0px" y="0px"
	 width="146px" height="146px" viewBox="0 0 146 146" enable-background="new 0 0 146 146" xml:space="preserve">
<path fill="#EFCC00" d="M117.902,75.729c-0.588,22.746-19.734,41.011-43.281,41.011c-23.553,0-42.697-18.265-43.287-41.011H13.663
	c0.596,32.092,27.651,52.051,60.959,52.051c33.306,0,60.358-19.959,60.954-52.051H117.902z"/>
<g>
	<path fill="#6D6E70" d="M5.863,41.707c0.839-2.396,2.046-4.487,3.622-6.272c1.576-1.785,3.508-3.184,5.799-4.199
		c2.293-1.015,4.873-1.522,7.743-1.522c2.904,0,5.494,0.507,7.769,1.522c2.275,1.015,4.198,2.414,5.773,4.199
		c1.575,1.785,2.783,3.876,3.621,6.272c0.842,2.397,1.262,4.996,1.262,7.795c0,2.729-0.42,5.275-1.262,7.638
		c-0.838,2.361-2.046,4.418-3.621,6.168c-1.575,1.75-3.498,3.122-5.773,4.119c-2.274,0.998-4.864,1.496-7.769,1.496
		c-2.87,0-5.45-0.498-7.743-1.496c-2.291-0.997-4.224-2.369-5.799-4.119c-1.575-1.75-2.783-3.807-3.622-6.168
		c-0.84-2.362-1.261-4.909-1.261-7.638C4.602,46.703,5.022,44.104,5.863,41.707z M13.394,54.095
		c0.367,1.488,0.954,2.826,1.759,4.016c0.805,1.19,1.855,2.144,3.15,2.861c1.293,0.717,2.869,1.075,4.724,1.075
		c1.854,0,3.429-0.358,4.724-1.075c1.295-0.718,2.344-1.672,3.15-2.861c0.805-1.189,1.391-2.527,1.758-4.016
		c0.367-1.487,0.552-3.019,0.552-4.593c0-1.645-0.185-3.236-0.552-4.776c-0.367-1.54-0.953-2.913-1.758-4.121
		c-0.807-1.208-1.855-2.17-3.15-2.887c-1.295-0.717-2.87-1.075-4.724-1.075c-1.855,0-3.43,0.358-4.724,1.075
		c-1.295,0.717-2.345,1.679-3.15,2.887c-0.805,1.208-1.392,2.581-1.759,4.121c-0.367,1.54-0.551,3.132-0.551,4.776
		C12.843,51.076,13.027,52.607,13.394,54.095z"/>
	<path fill="#6D6E70" d="M113.682,48.636c0.664-1.767,1.608-3.271,2.834-4.514c1.225-1.242,2.693-2.205,4.408-2.887
		c1.715-0.684,3.639-1.024,5.774-1.024c2.134,0,4.067,0.341,5.8,1.024c1.732,0.682,3.21,1.645,4.436,2.887
		c1.225,1.242,2.17,2.747,2.834,4.514c0.666,1.769,0.998,3.736,0.998,5.904c0,2.171-0.332,4.131-0.998,5.88
		c-0.664,1.75-1.609,3.245-2.834,4.487c-1.226,1.243-2.703,2.196-4.436,2.861c-1.732,0.664-3.666,0.998-5.8,0.998
		c-2.136,0-4.06-0.334-5.774-0.998c-1.715-0.665-3.186-1.618-4.408-2.861c-1.226-1.242-2.17-2.737-2.834-4.487
		c-0.666-1.749-0.998-3.709-0.998-5.88C112.684,52.372,113.016,50.404,113.682,48.636z M120.451,57.718
		c0.21,1.031,0.568,1.959,1.076,2.781c0.507,0.822,1.181,1.479,2.021,1.969c0.841,0.49,1.89,0.734,3.149,0.734
		c1.259,0,2.316-0.244,3.175-0.734c0.858-0.49,1.54-1.146,2.047-1.969c0.507-0.823,0.866-1.75,1.077-2.781
		c0.209-1.032,0.312-2.092,0.312-3.178c0-1.084-0.104-2.151-0.312-3.2c-0.211-1.051-0.57-1.977-1.077-2.783
		c-0.507-0.805-1.188-1.46-2.047-1.967c-0.856-0.508-1.916-0.761-3.175-0.761c-1.26,0-2.311,0.253-3.149,0.761
		c-0.841,0.507-1.515,1.163-2.021,1.967c-0.508,0.807-0.866,1.732-1.076,2.783c-0.21,1.049-0.314,2.116-0.314,3.2
		C120.137,55.626,120.241,56.686,120.451,57.718z"/>
</g>
<line fill="none" x1="0.884" y1="68.083" x2="145.116" y2="68.083"/>
</svg>
